<?xml version="1.0" encoding="UTF-8" standalone="no"?>
<svg
   version="1.0"
   width="397.53299"
   height="397.53253"
   viewBox="0 0 3975.3299 3975.3253"
   preserveAspectRatio="xMidYMid"
   id="svg131"
   sodipodi:docname="favicon.svg"
   inkscape:version="1.4.1 (1:1.4.1+202503302257+93de688d07)"
   inkscape:export-filename="favicon.png"
   inkscape:export-xdpi="61.821285"
   inkscape:export-ydpi="61.821285"
   xmlns:inkscape="http://www.inkscape.org/namespaces/inkscape"
   xmlns:sodipodi="http://sodipodi.sourceforge.net/DTD/sodipodi-0.dtd"
   xmlns="http://www.w3.org/2000/svg"
   xmlns:svg="http://www.w3.org/2000/svg"
   xmlns:rdf="http://www.w3.org/1999/02/22-rdf-syntax-ns#"
   xmlns:cc="http://creativecommons.org/ns#"
   xmlns:dc="http://purl.org/dc/elements/1.1/">
  <metadata
     id="metadata137">
    <rdf:RDF>
      <cc:Work
         rdf:about="">
        <dc:format>image/svg+xml</dc:format>
        <dc:type
           rdf:resource="http://purl.org/dc/dcmitype/StillImage" />
      </cc:Work>
    </rdf:RDF>
  </metadata>
  <defs
     id="defs135" />
  <sodipodi:namedview
     pagecolor="#ffffff"
     bordercolor="#666666"
     borderopacity="1"
     objecttolerance="10"
     gridtolerance="10"
     guidetolerance="10"
     inkscape:pageopacity="0"
     inkscape:pageshadow="2"
     inkscape:window-width="1920"
     inkscape:window-height="999"
     id="namedview133"
     showgrid="false"
     fit-margin-top="0"
     fit-margin-left="0"
     fit-margin-right="0"
     fit-margin-bottom="0"
     inkscape:zoom="1.4524012"
     inkscape:cx="91.572494"
     inkscape:cy="152.50607"
     inkscape:window-x="1920"
     inkscape:window-y="0"
     inkscape:window-maximized="1"
     inkscape:current-layer="svg131"
     inkscape:showpageshadow="2"
     inkscape:pagecheckerboard="0"
     inkscape:deskcolor="#d1d1d1" />
  <path
     id="path40"
     style="fill:#41a1b0;fill-opacity:1;stroke:none;stroke-width:1"
     d="m 2219.1591,0 -170,1.9921875 -170,3.0078125 -26.9922,108.00781 c -15,59 -32.0078,112.9961 -38.0078,120.9961 -6,7 -36.9844,20.0039 -68.9844,29.0039 -31,8 -110,29.98828 -175,47.98828 l -119.0039,32.01172 -87.0117,-87.01172 -87.9883,-87.98828 -125,72.98828 c -183,106 -167.00391,84.01172 -139.0039,187.01172 42,150 42.0039,147.98438 -30.9961,218.98438 l -63.00782,61.01562 -235,51.99219 c -276,61 -505.99218,116.99609 -531.99218,130.99609 -10,5 -27.00391,28 -39.00391,50 l -19.999996,40.9961 41.992186,56.01561 c 24,31 95.00781,121.9922 158.00781,201.9922 64,79 117.99609,147.9922 120.99609,151.9922 3,4 183,34.0117 400,67.0117 217.00002,33 451.00002,69 520.00002,80 69,10 134,18.9883 145,17.9883 21,-2 29.0078,-32 58.0078,-215 13,-88 12.9961,-92.9883 -4.0039,-102.9883 -10,-5 -199.9961,-80 -420.9961,-165 l -403.00782,-157.01171 -135,17.01172 c -74,9 -146.99218,19.98828 -161.99218,22.98828 -25,5 -28.00782,2.01562 -28.00782,-18.98438 0,-25 3.00391,-26.01562 159.00391,-51.01562 l 159.00391,-25.9961 179.0039,68.00782 c 98,38 188,71.99999 200,74.99999 18,6 37.9883,-7.00781 107.9883,-73.00781 189,-179 415.0078,-290.99609 668.0078,-330.99609 43,-7 81,-9.99609 85,-5.99609 4,4 8.9922,141.99609 11.9922,305.99609 3,164 7,301.0078 10,303.0078 3,3 45.0039,18.9961 94.0039,35.9961 70,25 91.0078,29.0039 98.0078,19.0039 4,-7 7.9883,-158.0156 7.9883,-336.01561 0,-269 2.0039,-323.98828 14.0039,-327.98828 23,-9 179.0039,23.98828 274.0039,57.98828 166,58 303.9922,138.01562 431.9922,251.01562 41,37 77,66.99219 80,66.99219 3,0 55.0039,-58.99609 114.0039,-130.99609 L 3185.1747,708.00781 3118.163,640 l -67.9883,-68.00781 27.9883,-110.9961 c 15,-61 25.0117,-117 22.0117,-125 -3,-8 -67.0117,-48.99218 -142.0117,-91.99218 l -135.9961,-77.01172 -86.9922,86.01562 -87.0117,85 -175,-45 c -96,-24 -179.9922,-49.0039 -186.9922,-54.0039 -6,-6 -24.0039,-62 -39.0039,-125 z m 1576.0156,565 -174.0039,29.00391 c -95,15 -205.9961,35.0039 -245.9961,44.0039 -90,19 -66.0156,-6.00781 -466.0156,491.99219 -185,231 -281.9922,359.0078 -276.9922,368.0078 4,7 55.9961,56.9922 115.9961,111.9922 l 109.0039,99.0039 50.9961,-40.9961 c 27,-22 185.9961,-154.0078 350.9961,-293.0078 l 302.0117,-254.0039 44.0039,-132.98829 c 41,-124 45.9961,-133.01562 70.9961,-136.01562 15,-2 26.9922,1.01562 26.9922,6.01562 0,18 -91,276.98829 -105,297.98829 -7,11 -88,81 -180,155 -189,152 -175,124.0039 -140,274.0039 25,109 30.9961,341 10.9961,450 -25,132 -85.9922,335 -101.9922,335 -9,0 -72,-33.9961 -255,-140.9961 -102,-59 -200.9961,-115 -220.9961,-125 l -35.9961,-17.0117 -71.0156,62.0117 c -39,33 -76.9844,60.9961 -83.9844,60.9961 -7,0 -26.0117,-13 -42.0117,-30 -28,-29 -55,-39 -55,-20 0,9 35,31.0078 425,258.0078 256,149 234.9961,130.9922 200.9961,181.9922 -42,63 -169.9961,188.9961 -260.9961,255.9961 -95,70 -209.9883,131.0039 -317.9883,169.0039 -44,16 -76.0039,33.0039 -74.0039,39.0039 2,6 27.9883,77.0039 57.9883,159.0039 60,165 53,158.9961 150,130.9961 l 54.0039,-15.9961 79.0039,85.9961 c 43,47 82.0078,85.9961 88.0078,85.9961 19,0 270.9883,-151 282.9883,-170 3,-6 -5.0039,-50 -19.0039,-100 -14,-49 -25.9961,-100.9961 -25.9961,-115.9961 0,-21 24.0078,-51.9961 108.0078,-135.9961 158,-162 137.9883,-153.0078 267.9883,-118.0078 60,17 112,30 115,30 4,0 44.0039,-64.9961 89.0039,-145.9961 l 83.0078,-145 L 3638.163,2520 c -48,-50 -84.9883,-94.9922 -82.9883,-101.9922 3,-7 24.9844,-88.0156 48.9844,-181.0156 L 3648.163,2070 l 40,-10.9961 c 22,-6 75.0078,-18.9961 118.0078,-30.9961 l 76.9922,-20 v -169.0039 -168.0078 l -47.9883,-14.0039 c -26,-8 -73,-19.9922 -105,-26.9922 -74,-17 -97.0117,-43.0078 -97.0117,-113.0078 0,-30 39,-206.9961 95,-435.9961 53,-212.00001 97.9961,-403.9961 100.9961,-425.9961 4,-30 0,-46 -15,-65 z m -2170.2539,587.3828 c -7.541,-0.551 -11.7578,0.613 -11.7578,3.6133 0,16 -69.9961,419.0078 -75.9961,438.0078 -6,17 -14,17.9961 -105,10.9961 -61,-4 -99.0039,-2.9922 -99.0039,3.0078 0,11 125.0039,148 269.0039,295 53,53 98.9922,96.9922 101.9922,96.9922 21,0 296,-124.0039 310,-139.0039 15,-19 19.0039,-40.0039 69.0039,-369.0039 29,-198 30.0117,-196.9883 -27.9883,-207.9883 -36,-7 -35.0117,-10.0039 -52.0117,120.9961 -16,118 -18,125 -40,125 -11,0 -20,-2.9922 -20,-6.9922 0,-5 7,-53.0078 15,-108.0078 23,-157 22.0039,-160.0039 -25.9961,-174.0039 -23,-7 -42.9961,-9.9922 -45.9961,-6.9922 -3,2 -11.9961,61.9883 -20.9961,132.9883 -17,125 -17.0117,128.0078 -42.0117,128.0078 -29,0 -28.0039,9.9961 -9.0039,-164.0039 13,-122 9.0039,-134.0039 -35.9961,-129.0039 -18,3 -22.0039,18.0156 -39.0039,136.0156 -19,126 -19.9883,131.9922 -42.9883,131.9922 -29,0 -29.0039,-13.0078 -4.0039,-173.0078 l 18.0078,-118.9844 -24.0039,-9.0039 c -26.875,-10 -48.6816,-15.7031 -61.25,-16.6211 z m 1035.2539,189.6094 c -14,-3 -505.0078,93 -513.0078,100 -3,4 -54.0039,326.0117 -54.0039,347.0117 0,5 96.0117,89 212.0117,185 117,97 216.9883,175.9961 222.9883,175.9961 6,0 26.0039,-13.0078 44.0039,-28.0078 l 34.0039,-27.9883 L 2505.1747,2010 c -90,-74 -100.0117,-86.0039 -87.0117,-99.0039 13,-13 17.0117,-13 32.0117,0 10,8 46.9883,39.9961 82.9883,70.9961 94,80 102.0039,83.0117 139.0039,52.0117 17,-14 30.9961,-29.0117 30.9961,-32.0117 0,-4 -48,-44.9961 -105,-90.9961 -58,-46 -103.9922,-89 -101.9922,-95 9,-26 38.9883,-10.9883 137.9883,67.0117 l 105,83.9844 30,-23.9844 29.0039,-24.0039 -104.0039,-98.0078 c -81,-75 -102.9883,-102 -97.9883,-115 7,-17 8,-16.9961 35,-0.996 23,15 90.0039,71.0078 189.0039,158.0078 21,19 21.9922,19 56.9922,-15 l 35,-33.0079 -174.0039,-158.0078 c -96,-87 -175,-161 -175,-165 0,-4 24.9961,-37.9922 55.9961,-76.9922 39,-48 51.0156,-71.0078 41.0156,-73.0078 z M 521.1708,1470 c -28,0 -29.00391,2.0078 -54.00391,103.0078 -8,33 -33.00391,45.9844 -154.00391,78.9844 -101,27 -97.98828,22.0078 -97.98828,193.0078 0,174 -6.01172,164.0078 117.98828,198.0078 58,16 110.01172,34 117.01172,40 10,10 102.98828,329.9883 102.98828,352.9883 0,4 -38.99609,46.0039 -85.99609,94.0039 l -85.99609,88.0078 85.99609,145 85,145 108.00781,-29.0039 c 59,-16 114,-29.0039 120,-29.0039 15,0 201,177.0078 245,233.0078 l 30.9961,38.9844 -28.0078,101.0156 c -16,56 -29.9922,106.9844 -31.9922,113.9844 -5,11 114.0039,86.0039 229.0039,144.0039 l 60.9961,30.9961 82.9883,-82.9883 83.0078,-83.0078 95.9961,22.0117 95.9961,21.9922 302.0117,295 c 300,293 301.9922,295.0039 336.9922,289.0039 19,-4 37.9961,-9.0078 40.9961,-13.0078 7,-7 105.0039,-265.9961 149.0039,-395.9961 18,-53 24.0039,-87 19.0039,-100 -5,-11 -85,-225 -180,-475 -94,-250 -175,-462.9922 -180,-471.9922 -9,-16 -22.9922,-13.0156 -156.9922,33.9844 -81,28 -148,52.0039 -150,54.0039 -2,1 28.9844,196.9961 68.9844,435.9961 l 72.0117,433.0078 94.0039,101.9922 c 51,57 92.9883,107.0117 92.9883,112.0117 0,5 -5.9883,13.0039 -12.9883,19.0039 -10,9 -37.0039,-13.0156 -119.0039,-96.0156 l -105,-106.9922 -25.9961,-160.9961 c -15,-89 -31.0117,-183.9961 -37.0117,-210.9961 L 1842.1669,3085 1740.1747,3058.0078 c -266,-68 -521.0039,-235.0039 -679.0039,-444.0039 -35,-47 -39.0117,-57.0039 -27.0117,-69.0039 8,-8 121.0156,-75.9922 251.0156,-151.9922 130,-76 247.9922,-147.0078 261.9922,-158.0078 l 25,-20 -15,-73.0078 c -9,-40 -12.9961,-78.9922 -10.9961,-86.9922 3,-7 18.9961,-16 35.9961,-20 17,-4 32.9961,-10 35.9961,-15 7,-12 -4.9922,-40 -16.9922,-40 -6,0 -154,83 -330,185 -176,102 -330.01172,187.0078 -342.01172,188.0078 -27,3 -56.9961,-58 -90.9961,-185 -47,-177 -55.0039,-398.0078 -19.0039,-573.0078 7,-38 10.01562,-71.9961 6.01562,-75.9961 -9,-8 -266.0039,-49.0039 -304.0039,-49.0039 z m 1612.9883,440 c -9,0 -133.9883,40.9961 -277.9883,90.9961 -280,98 -275.0078,96.0078 -253.0078,153.0078 l 9.0039,25 L 1728.163,2140 c 123,-43 149.0078,-46.9922 143.0078,-26.9922 -6,15 -27.0117,26 -142.0117,75 -49,20 -93.9844,43.9883 -98.9844,52.9883 -5,9 -7.0078,28.0039 -3.0078,44.0039 8,32 4.9961,32.9961 170.9961,-19.0039 93,-29 111.0078,-32.0039 113.0078,-19.0039 5,21 -5.0078,26.0039 -128.0078,69.0039 -148,52 -139.9883,46.9961 -127.9883,90.9961 5,21 10.9883,39.0156 12.9883,41.0156 1,1 64,-20.0078 140,-48.0078 75,-28 140.0117,-48.9961 142.0117,-45.9961 17,16 -20.0156,38.9961 -136.0156,85.9961 -72,29 -133.9922,55.9961 -136.9922,60.9961 -4,8 14.9922,89.0039 21.9922,89.0039 2,0 94.0156,-31.9961 206.0156,-70.9961 112,-39 211.9844,-72.9961 223.9844,-75.9961 18,-4 25.0039,5.9961 54.0039,75.9961 26,63 36.0078,77.9961 43.0078,65.9961 5,-9 43.9922,-119 86.9922,-245 l 79.0039,-229.0039 -120.9961,-100 c -67,-56 -128.0117,-100.9961 -137.0117,-100.9961 z" />
  <path
     style="fill:none;stroke:#ff0000;stroke-width:399.99999938;stroke-linecap:butt;stroke-linejoin:miter;stroke-opacity:1;stroke-dasharray:none"
     d="M 0,0 3975.3299,3975.3253"
     id="path288"
     sodipodi:nodetypes="cc" />
  <path
     style="fill:none;stroke:#ff0000;stroke-width:399.99999938;stroke-linecap:butt;stroke-linejoin:miter;stroke-opacity:1;stroke-dasharray:none"
     d="M 3971.7944,3.5355339 0,3975.3253"
     id="path290"
     sodipodi:nodetypes="cc" />
</svg>
