<?xml version="1.0" encoding="UTF-8" standalone="no"?>
<!-- Created with Inkscape (http://www.inkscape.org/) -->

<svg
   width="170.62637mm"
   height="32.820076mm"
   viewBox="0 0 170.62637 32.820076"
   version="1.1"
   id="svg1"
   inkscape:version="1.4.1 (1:1.4.1+202503302257+93de688d07)"
   sodipodi:docname="logo_1.svg"
   xmlns:inkscape="http://www.inkscape.org/namespaces/inkscape"
   xmlns:sodipodi="http://sodipodi.sourceforge.net/DTD/sodipodi-0.dtd"
   xmlns="http://www.w3.org/2000/svg"
   xmlns:svg="http://www.w3.org/2000/svg">
  <sodipodi:namedview
     id="namedview1"
     pagecolor="#ffffff"
     bordercolor="#000000"
     borderopacity="0.25"
     inkscape:showpageshadow="2"
     inkscape:pageopacity="0.0"
     inkscape:pagecheckerboard="0"
     inkscape:deskcolor="#d1d1d1"
     inkscape:document-units="mm"
     inkscape:zoom="0.48567463"
     inkscape:cx="10.294958"
     inkscape:cy="-58.681262"
     inkscape:window-width="1920"
     inkscape:window-height="999"
     inkscape:window-x="3840"
     inkscape:window-y="0"
     inkscape:window-maximized="1"
     inkscape:current-layer="layer1" />
  <defs
     id="defs1" />
  <g
     inkscape:label="Layer 1"
     inkscape:groupmode="layer"
     id="layer1"
     transform="translate(72.362044,-154.43103)">
    <path
       d="m -72.362035,180.3115 v 0.0955 h 2.578498 v -0.0955 -2.865 -8.21299 h 3.501663 c 3.788162,0 5.093328,0.54117 7.194325,1.8145 v -4.202 l -0.03183,-0.0318 c -2.037331,1.27333 -3.37433,1.84633 -7.162492,1.84633 h -3.501663 v -9.96382 h 6.207493 c 4.965995,0 7.353492,2.61033 8.722324,3.94733 h 0.06367 l -1.623498,-4.52033 h -4.201996 -11.746488 v 0.0955 2.80133 16.42598 z m 33.170309,-2.101 -0.06367,-0.0637 c -1.305166,1.97367 -2.801331,1.528 -2.801331,-0.73216 v -8.56316 c 0,-3.27883 -1.591665,-4.90233 -5.029661,-4.90233 -2.196498,0 -5.284328,1.08233 -7.098826,1.84633 l -1.305165,4.42483 c 4.074662,-4.45666 6.17566,-5.76183 8.276658,-5.76183 2.196497,0 2.737664,2.22834 2.769497,4.966 -3.406163,1.75083 -11.459988,4.64766 -11.459988,8.37216 0,4.96599 7.003326,2.92866 11.428155,-0.44567 v 0.60483 c 0,3.9155 3.597162,3.56533 5.284327,0.25467 z m -14.229485,-1.36883 c 0,-3.1515 5.857328,-5.4435 8.976991,-7.06699 l -0.03183,7.16249 c -3.724496,2.674 -8.945158,3.91549 -8.945158,-0.0955 z m 22.824462,3.94733 c 3.437997,0 6.36666,-2.1965 6.36666,-4.584 0,-1.27333 -0.827666,-2.35566 -2.89683,-3.40616 -1.718998,-0.89133 -6.239327,-2.80133 -7.576325,-3.59716 -1.145999,-0.63667 -1.623499,-1.40067 -1.623499,-2.32383 0.03183,-1.2415 1.687165,-2.35567 4.042829,-2.35567 4.520329,0 6.65316,3.11966 7.926492,5.4435 l 0.127333,-0.0318 -1.655331,-5.25249 c -1.750832,-0.44567 -4.010996,-0.73217 -5.443495,-0.73217 -4.297495,0 -6.684993,2.16467 -6.684993,4.36116 0,1.337 0.859499,2.674 2.642164,3.59717 3.024164,1.528 5.029662,2.26016 6.84416,3.08783 1.527998,0.6685 2.451164,1.65533 2.41933,2.61033 0,1.30516 -1.559831,2.54666 -3.819996,2.54666 -4.138328,0 -6.557659,-2.292 -8.849657,-6.81232 h -0.127333 l 2.291998,6.55765 c 1.687164,0.44567 4.170162,0.89134 6.016493,0.89134 z m 21.2009418,-0.50934 v 0.12734 h 2.3874974 v -0.12734 -3.59716 -7.22616 c 0,-7.13066 -5.8254942,-6.87599 -12.1603202,-1.8145 v -13.21081 l -2.99233,3.50166 c 0.350166,1.01866 0.572999,1.94183 0.572999,2.9605 v 15.78931 3.629 0.0955 h 2.419331 v -0.0637 -3.69266 -8.59499 c 4.424828,-3.66083 9.7728228,-4.2975 9.7728228,1.87816 v 6.78049 z m 3.4061622,3.85183 v 3.11967 h 0.8913324 c 3.9154959,0 6.1438268,-0.8595 9.0406571,-6.93966 l 4.5203286,-9.48633 c 0.9549989,-1.97366 1.8781649,-4.01099 2.8649969,-5.98466 l 0.159167,-0.35016 H 8.6536729 v 0.0637 c 0.5411661,1.75084 0.2546664,4.04283 -0.7639992,6.2075 l -3.3106632,7.13066 -5.7936605,-11.04616 -1.1459988,-2.16466 -0.0955,-0.191 h -2.9604969 l 0.0955,0.15916 1.3369986,2.483 7.3216589,13.43365 c -2.1646644,4.4885 -4.9023281,5.0615 -9.3271568,3.56533 z m 19.768453,-3.85183 v 0.12734 h 8.658657 5.411661 l 3.660829,-5.66633 -0.06367,-0.0955 C 27.944626,177.733 25.047796,179.834 19.986301,179.834 h -3.628996 v -18.78165 -2.70583 -0.22283 h -2.578497 v 0.22283 2.70583 16.36232 z m 35.621447,-5.60266 -0.127333,-0.0318 c -3.660829,7.38533 -13.369986,5.53899 -13.624652,-3.247 -0.03183,-0.54116 0,-1.01866 0.06367,-1.49616 H 48.47709 c -0.03183,-9.07249 -15.120818,-7.41716 -15.120818,2.70583 0,9.61366 12.478654,11.26899 16.043983,2.06916 z m -13.592819,-5.41166 c 1.336999,-6.14382 9.422657,-5.88916 10.091156,-0.44566 l 0.03183,0.44566 z m 31.546771,8.94516 -0.06367,-0.0637 c -1.305165,1.97367 -2.80133,1.528 -2.80133,-0.73216 v -8.56316 c 0,-3.27883 -1.591665,-4.90233 -5.029661,-4.90233 -2.196498,0 -5.284328,1.08233 -7.098826,1.84633 l -1.305165,4.42483 c 4.074662,-4.45666 6.17566,-5.76183 8.276658,-5.76183 2.196497,0 2.737663,2.22834 2.769497,4.966 -3.406163,1.75083 -11.459988,4.64766 -11.459988,8.37216 0,4.96599 7.003326,2.92866 11.428154,-0.44567 v 0.60483 c 0,3.9155 3.597163,3.56533 5.284328,0.25467 z m -14.229485,-1.36883 c 0,-3.1515 5.857327,-5.4435 8.976991,-7.06699 l -0.03183,7.16249 c -3.724496,2.674 -8.945157,3.91549 -8.945157,-0.0955 z m 15.566476,3.46983 v 0.0955 h 2.419331 v -0.0637 -3.69266 -5.12516 l 9.07249,8.88149 h 3.437996 L 72.95686,170.25218 84.130348,164.49035 h -3.597163 l -7.544492,5.41166 -1.878164,1.40066 v -16.87164 l -2.992331,3.50166 c 0.350167,1.01866 0.573,1.94183 0.573,2.9605 v 15.78931 z m 23.206449,0.4775 c 3.437997,0 6.36666,-2.1965 6.36666,-4.584 0,-1.27333 -0.827665,-2.35566 -2.89683,-3.40616 -1.718998,-0.89133 -6.239327,-2.80133 -7.576325,-3.59716 -1.145999,-0.63667 -1.623499,-1.40067 -1.623499,-2.32383 0.03183,-1.2415 1.687165,-2.35567 4.042829,-2.35567 4.520329,0 6.65316,3.11966 7.926492,5.4435 l 0.127333,-0.0318 -1.655331,-5.25249 c -1.750832,-0.44567 -4.010996,-0.73217 -5.443495,-0.73217 -4.297495,0 -6.684992,2.16467 -6.684992,4.36116 0,1.337 0.859499,2.674 2.642163,3.59717 3.024164,1.528 5.029662,2.26016 6.84416,3.08783 1.527998,0.6685 2.451164,1.65533 2.419331,2.61033 0,1.30516 -1.559832,2.54666 -3.819996,2.54666 -4.138329,0 -6.55766,-2.292 -8.849658,-6.81232 h -0.127333 l 2.291998,6.55765 c 1.687165,0.44567 4.170162,0.89134 6.016493,0.89134 z"
       id="text1-5"
       style="font-weight:450;font-size:31.8333px;line-height:1.1;font-family:Solare;-inkscape-font-specification:'Solare weight=450';text-align:center;letter-spacing:0px;text-anchor:middle;white-space:pre;fill:#41a1b0;stroke-width:0.264583"
       aria-label="FashyLeaks" />
  </g>
</svg>
