<?xml version="1.0" encoding="UTF-8" standalone="no"?>
<svg
   width="276.20026"
   height="60.621494"
   viewBox="0 0 207.15019 45.466346"
   version="1.1"
   id="svg3"
   sodipodi:docname="bohmian.svg"
   inkscape:version="1.4.1 (1:1.4.1+202503302257+93de688d07)"
   xmlns:inkscape="http://www.inkscape.org/namespaces/inkscape"
   xmlns:sodipodi="http://sodipodi.sourceforge.net/DTD/sodipodi-0.dtd"
   xmlns="http://www.w3.org/2000/svg"
   xmlns:svg="http://www.w3.org/2000/svg">
  <defs
     id="defs3" />
  <sodipodi:namedview
     id="namedview3"
     pagecolor="#ffffff"
     bordercolor="#000000"
     borderopacity="0.25"
     inkscape:showpageshadow="2"
     inkscape:pageopacity="0.0"
     inkscape:pagecheckerboard="0"
     inkscape:deskcolor="#d1d1d1"
     inkscape:zoom="2.5848797"
     inkscape:cx="170.22068"
     inkscape:cy="17.602366"
     inkscape:window-width="1920"
     inkscape:window-height="999"
     inkscape:window-x="3840"
     inkscape:window-y="0"
     inkscape:window-maximized="1"
     inkscape:current-layer="svg3" />
  <path
     id="text3036-56-3-9-6"
     style="font-style:italic;font-size:24.2713px;line-height:1.25;font-family:APOLLO;-inkscape-font-specification:'APOLLO Italic';letter-spacing:0px;display:inline;fill:#41a1b0;fill-opacity:1;stroke-width:0.606785"
     d="m 104.8062,44.689543 c -0.0485,0.097 -0.0243,0.1456 0.0728,0.1456 h 0.70388 c 0.0728,0 0.0971,-0.024 0.0971,-0.073 l 4.41739,-7.135835 c 0.0243,-0.049 0.0485,-0.073 0.12136,-0.073 h 5.55816 c 0.0485,0 0.0971,0.024 0.12135,0.073 0.0728,0.582603 0.29126,4.951424 0.55824,7.135835 0,0.049 0.0243,0.073 0.0971,0.073 h 2.28151 c 0.0728,0 0.12136,-0.048 0.12136,-0.1456 -0.19417,-1.626208 -0.48543,-5.339727 -0.75241,-8.907644 -0.31553,-3.762019 -0.55824,-7.329936 -0.63106,-7.863939 -0.0243,-0.049 -0.0728,-0.073 -0.12135,-0.073 h -2.16017 c -0.0728,0 -0.0971,0.024 -0.0971,0.073 l -1.38347,2.208711 c -1.28639,2.160211 -2.57277,4.150421 -3.76207,6.09213 -2.06307,3.228116 -4.27177,6.844534 -5.24263,8.470742 z m 6.04358,-7.98534 c -0.0971,0 -0.12135,-0.049 -0.0728,-0.1456 l 4.22323,-6.820234 c 0.0728,-0.097 0.14562,-0.097 0.21844,0 l 0.53398,6.820234 c 0,0.097 -0.0485,0.1456 -0.12136,0.1456 z m 12.52407,-4.732923 c -1.16502,4.538822 -2.79121,10.339651 -3.37372,12.742563 -0.0243,0.073 0,0.1213 0.0971,0.1213 h 2.13588 c 0.0485,0 0.0971,-0.048 0.12136,-0.1213 l 2.13588,-8.203741 c 0.0243,-0.073 0.0728,-0.097 0.14563,-0.097 h 0.36407 c 1.43201,2.864014 2.49995,4.587322 3.49509,6.237731 0.48542,0.849504 0.89803,1.383506 1.16503,1.747508 1.01939,1.068005 1.432,1.068005 2.2087,1.068005 h 1.67472 c 0.0728,0 0.12135,-0.049 0.14563,-0.1214 l 0.0728,-0.194201 c 0.0243,-0.073 -0.0243,-0.097 -0.0971,-0.097 -0.94658,-0.073 -1.48055,-0.436902 -2.16015,-1.771808 l -1.57764,-3.228116 -1.77181,-3.470817 c -0.0728,-0.073 0.0243,-0.169901 0.12135,-0.169901 2.98538,-0.073 6.4562,-0.752404 7.42705,-4.296021 0.97086,-3.567918 -2.57277,-4.271821 -5.38825,-4.271821 h -5.75233 c -0.0485,0 -0.0971,0.049 -0.12135,0.121401 z m 3.17956,-3.131015 c 0.0243,-0.073 0.0728,-0.121301 0.14563,-0.121301 h 2.96112 c 3.00965,0 4.19895,1.140706 3.59216,3.398017 -0.60678,2.232911 -2.35433,3.422217 -5.38825,3.422217 h -2.96112 c -0.0971,0 -0.12135,-0.049 -0.0971,-0.121301 z m 14.00465,0.218501 c -3.00966,1.650408 -4.87856,4.344521 -5.65525,7.281436 -1.3592,5.145525 1.65046,8.737642 6.48047,8.737642 2.62132,0 5.2669,-1.067905 7.40279,-3.203815 0.0485,-0.048 0.0485,-0.097 0.0243,-0.145601 l -0.0728,-0.073 c -0.0485,-0.073 -0.0971,-0.073 -0.14562,0 -1.84463,1.553307 -3.78635,2.18441 -5.53389,2.18441 -4.15041,0 -6.74745,-3.616417 -5.46107,-8.592042 1.28639,-4.635922 4.99992,-6.868833 8.05811,-6.868833 2.83976,0 4.41741,0.873704 4.9271,3.203815 0,0.048 0.0243,0.073 0.0971,0.048 l 0.24271,-0.097 c 0.0485,-0.024 0.0971,-0.073 0.12136,-0.145701 -0.48543,-2.232911 -2.11162,-3.592117 -4.56303,-3.762018 -1.94171,-0.121401 -3.98051,0.364002 -5.92222,1.432007 z m 8.54353,15.655077 c -0.0243,0.073 0,0.1213 0.0971,0.1213 h 2.13588 c 0.0485,0 0.0971,-0.048 0.12136,-0.1213 l 2.11161,-8.03384 c 0.0243,-0.073 0.0728,-0.097 0.14563,-0.097 h 8.25228 c 0.0728,0 0.12136,0.024 0.0971,0.097 l -2.11161,8.03384 c -0.0243,0.073 0,0.1213 0.0728,0.1213 h 2.13588 c 0.0728,0 0.12137,-0.048 0.14564,-0.1213 l 4.41739,-16.747282 c 0.0243,-0.073 0,-0.121401 -0.0971,-0.121401 h -2.13589 c -0.0485,0 -0.0971,0.049 -0.12135,0.121401 l -2.0388,7.621237 c -0.0243,0.073 -0.0728,0.121301 -0.14564,0.121301 h -8.25228 c -0.0971,0 -0.12136,-0.048 -0.0971,-0.121301 l 2.0388,-7.621237 c 0.0243,-0.073 0,-0.121401 -0.0728,-0.121401 h -2.13588 c -0.0728,0 -0.12136,0.049 -0.14563,0.121401 z m 15.1211,0.1213 h 2.25725 c 0.0485,0 0.0971,-0.048 0.12136,-0.1213 l 4.4174,-16.771583 c 0.0243,-0.073 -0.0243,-0.097 -0.0971,-0.097 h -2.11161 c -0.0728,0 -0.12136,0.024 -0.14563,0.097 z m 7.96103,-16.989983 c -0.12135,0 -0.14563,0.049 -0.12135,0.145601 l 1.40774,16.771582 c 0.0243,0.049 0.0485,0.073 0.12136,0.073 h 1.8689 c 0.0728,0 0.0971,-0.024 0.0971,-0.073 l 10.41244,-16.771582 c 0.0243,-0.097 -0.0243,-0.145601 -0.0971,-0.145601 h -0.67959 c -0.0728,0 -0.0971,0.024 -0.0971,0.073 -2.0388,3.203816 -7.93675,12.839563 -9.10178,14.684272 -0.0971,0.097 -0.1699,0.097 -0.21845,0 L 174.56233,27.91816 c 0,-0.049 -0.0243,-0.073 -0.0971,-0.073 z m 10.41245,16.868683 c -0.0243,0.073 0,0.1213 0.0971,0.1213 h 9.41731 c 0.0728,0 0.12135,-0.048 0.14562,-0.1213 l 0.14563,-0.655404 c 0.0243,-0.073 -0.0243,-0.097 -0.0971,-0.097 h -7.06298 c -0.0728,0 -0.0971,-0.049 -0.0728,-0.121401 l 1.91745,-7.257135 c 0.0243,-0.073 0.0728,-0.097 0.1699,-0.097 h 5.55814 c 0.0728,0 0.12137,-0.049 0.14564,-0.1214 l 0.14563,-0.655303 c 0.0243,-0.073 -0.0243,-0.097 -0.0971,-0.097 h -5.58243 c -0.0728,0 -0.0728,-0.049 -0.0485,-0.121301 l 1.77182,-6.650432 c 0.0243,-0.073 0.0728,-0.121301 0.12135,-0.121301 h 7.08725 c 0.0728,0 0.12136,-0.024 0.14563,-0.097 l 0.1699,-0.655303 c 0.0243,-0.073 0,-0.121401 -0.0971,-0.121401 h -9.4173 c -0.0728,0 -0.12136,0.049 -0.14563,0.121401 z M 6.1184989,0.62712671 c -0.0975,0 -0.162431,0.065 -0.194921,0.1624 L 0.01120891,23.204537 c -0.0325,0.098 0,0.162501 0.129941,0.162501 H 6.6707519 c 7.2117951,0 13.1891341,-4.807924 14.9108731,-11.369956 C 23.465784,4.7527466 19.502545,0.62712671 12.583121,0.62712671 Z m 2.663813,1.33190609 c 0.0325,-0.097 0.0974,-0.162401 0.194911,-0.162401 h 3.1186151 c 6.204741,0 7.634108,5.9448295 5.814919,11.8246582 -1.461857,5.295226 -5.782439,8.576242 -10.1355001,8.576242 h -4.223121 c -0.0975,0 -0.12994,-0.065 -0.0975,-0.1624 z M 20.249688,23.204537 c -0.0325,0.098 0,0.162501 0.129941,0.162501 h 12.604402 c 0.0975,0 0.16242,-0.065 0.194911,-0.162501 l 0.194911,-0.877104 c 0.0325,-0.097 -0.0325,-0.129901 -0.129941,-0.129901 h -9.453296 c -0.0975,0 -0.129941,-0.065 -0.0975,-0.1624 l 2.566363,-9.713248 c 0.0325,-0.097 0.0974,-0.129901 0.227401,-0.129901 h 7.439186 c 0.0975,0 0.162431,-0.065 0.194911,-0.162401 l 0.194921,-0.877104 c 0.0325,-0.098 -0.0325,-0.130001 -0.12994,-0.130001 h -7.471687 c -0.0974,0 -0.0974,-0.065 -0.065,-0.1624 l 2.371451,-8.9010442 c 0.0325,-0.097 0.0974,-0.162401 0.162421,-0.162401 h 9.485786 c 0.0975,0 0.162431,-0.033 0.194911,-0.13 l 0.227402,-0.87710509 c 0.0325,-0.097 0,-0.1624 -0.129941,-0.1624 H 26.356968 c -0.0974,0 -0.162421,0.065 -0.194911,0.1624 z M 44.061575,2.2514344 c -4.02821,2.2090108 -6.529592,5.8148285 -7.569137,9.7456476 -1.819189,6.886934 2.209021,11.694758 8.673642,11.694758 3.508448,0 7.049375,-1.429307 9.908099,-4.288122 0.065,-0.065 0.065,-0.1299 0.0325,-0.1949 l -0.0975,-0.097 c -0.065,-0.097 -0.129941,-0.097 -0.194911,0 -2.468903,2.07901 -5.067745,2.923715 -7.406707,2.923715 -5.555037,0 -9.030984,-4.840425 -7.309256,-11.499957 1.721739,-6.2047309 6.692023,-9.1933452 10.785213,-9.1933452 3.800809,0 5.912369,1.1694054 6.594563,4.2880206 0,0.065 0.0325,0.097001 0.12994,0.065 l 0.324862,-0.1299007 c 0.065,-0.033 0.129941,-0.098001 0.162421,-0.1950009 C 57.4456,2.3817341 55.26906,0.56252471 51.988024,0.33512371 49.389181,0.17272271 46.660388,0.82242675 44.061545,2.2518335 Z m 13.676417,9.1283446 c -2.07907,6.854534 1.234456,12.052159 8.316301,12.312061 7.081854,0.259901 13.384055,-4.483022 15.463125,-11.369956 C 83.693959,5.4024498 80.250482,0.26972471 73.201118,0.00992371 66.054293,-0.24997829 59.817072,4.622846 57.737992,11.379779 Z m 8.446251,11.402456 c -5.749948,-0.682203 -7.016884,-6.919434 -4.580472,-13.0916642 2.176541,-5.9123289 7.016884,-9.03094409 11.175035,-8.608642 5.912369,0.617203 6.919424,6.0423295 4.580462,13.1890642 -1.819189,5.944929 -6.984394,9.031045 -11.175025,8.511242 z m 14.19621,0.422302 c -0.0325,0.098 0,0.162501 0.12994,0.162501 h 2.858735 c 0.065,0 0.12994,-0.065 0.16242,-0.162501 l 2.826241,-10.752653 c 0.0325,-0.097 0.0975,-0.13 0.19492,-0.13 h 11.04509 c 0.0975,0 0.16243,0.033 0.12995,0.13 l -2.82624,10.752653 c -0.0325,0.098 0,0.162501 0.0974,0.162501 h 2.85873 c 0.0974,0 0.16242,-0.065 0.19491,-0.162501 L 103.96492,0.78952671 c 0.0325,-0.097 0,-0.1624 -0.12994,-0.1624 h -2.85873 c -0.065,0 -0.12995,0.065 -0.16243,0.1624 L 98.085029,10.989977 c -0.0325,0.098 -0.0974,0.162501 -0.19491,0.162501 h -11.04508 c -0.12996,0 -0.16244,-0.065 -0.12996,-0.162501 l 2.7288,-10.20045029 c 0.0325,-0.097 0,-0.1624 -0.0975,-0.1624 h -2.85873 c -0.0975,0 -0.16243,0.065 -0.19492,0.1624 z m 20.271007,0 c -0.0325,0.098 0,0.162501 0.12994,0.162501 h 12.60441 c 0.0975,0 0.16243,-0.065 0.19491,-0.162501 l 0.19492,-0.877104 c 0.0325,-0.097 -0.0325,-0.129901 -0.12995,-0.129901 h -9.4533 c -0.0974,0 -0.12994,-0.065 -0.0974,-0.1624 l 2.56635,-9.713248 c 0.0325,-0.097 0.0975,-0.129901 0.2274,-0.129901 h 7.4392 c 0.0974,0 0.16242,-0.065 0.19491,-0.162401 l 0.19491,-0.877104 c 0.0325,-0.098 -0.0325,-0.130001 -0.12994,-0.130001 h -7.47168 c -0.0975,0 -0.0975,-0.065 -0.065,-0.1624 l 2.37145,-8.9010442 c 0.0325,-0.097 0.0975,-0.162401 0.16243,-0.162401 h 9.48578 c 0.0974,0 0.16242,-0.033 0.19491,-0.13 l 0.22741,-0.87710509 c 0.0325,-0.097 0,-0.1624 -0.12996,-0.1624 h -12.60439 c -0.0975,0 -0.16243,0.065 -0.19491,0.1624 z M 119.4281,6.1496535 c -1.55931,6.0748295 -3.73584,13.8388675 -4.5155,17.0548835 -0.0325,0.098 0,0.162501 0.12994,0.162501 h 2.85873 c 0.065,0 0.12994,-0.065 0.16243,-0.162501 l 2.85872,-10.980054 c 0.0325,-0.097 0.0975,-0.13 0.19492,-0.13 h 0.48729 c 1.91665,3.833318 3.346,6.13983 4.67792,8.348841 0.6497,1.137005 1.20196,1.851609 1.55931,2.338911 1.36438,1.429407 1.91664,1.429407 2.95618,1.429407 h 2.2415 c 0.0975,0 0.16243,-0.065 0.19491,-0.162401 l 0.0975,-0.259901 c 0.0325,-0.098 -0.0325,-0.130001 -0.12994,-0.130001 -1.26693,-0.097 -1.98162,-0.584702 -2.89121,-2.371411 l -2.11157,-4.320621 -2.37144,-4.645423 c -0.0975,-0.097 0.0325,-0.227401 0.16243,-0.227401 3.99572,-0.097 8.64115,-1.007005 9.94058,-5.7499286 1.29942,-4.7753236 -3.44347,-5.71742769 -7.2118,-5.71742769 h -7.69908 c -0.065,0 -0.12994,0.065 -0.16243,0.1624 z m 4.2556,-4.1906207 c 0.0325,-0.097 0.0975,-0.162401 0.19492,-0.162401 h 3.96324 c 4.02821,0 5.61999,1.5268078 4.80785,4.5479226 -0.81213,2.9887147 -3.1511,4.5805226 -7.21179,4.5805226 h -3.96323 c -0.12995,0 -0.16244,-0.065 -0.12995,-0.162501 z m 9.35585,21.2455042 c -0.0325,0.098 0,0.162501 0.12995,0.162501 h 12.60439 c 0.0975,0 0.16244,-0.065 0.19492,-0.162501 l 0.19492,-0.877104 c 0.0325,-0.097 -0.0325,-0.129901 -0.12994,-0.129901 h -9.45331 c -0.0974,0 -0.12994,-0.065 -0.0974,-0.1624 l 2.56635,-9.713248 c 0.0325,-0.097 0.0975,-0.129901 0.2274,-0.129901 h 7.4392 c 0.0974,0 0.16243,-0.065 0.19491,-0.162401 l 0.19491,-0.877104 c 0.0325,-0.098 -0.0325,-0.130001 -0.12994,-0.130001 h -7.47168 c -0.0975,0 -0.0975,-0.065 -0.065,-0.1624 l 2.37144,-8.9010442 c 0.0325,-0.097 0.0975,-0.162401 0.16244,-0.162401 h 9.48578 c 0.0974,0 0.16242,-0.033 0.19491,-0.13 l 0.2274,-0.87710509 c 0.0325,-0.097 0,-0.1624 -0.12994,-0.1624 h -12.6044 c -0.0975,0 -0.16243,0.065 -0.19491,0.1624 z m 14.29362,-0.259801 c -0.0325,0.292301 0.0975,0.422302 0.35734,0.422302 h 0.32487 c 0.29236,0 0.45479,-0.130001 0.48728,-0.422302 l 4.90531,-18.4518906 c 0.0975,-0.2923015 0.25989,-0.4223021 0.55225,-0.4223021 0.0975,0 0.19493,0.065 0.2599,0.1625008 l 8.73861,18.9714929 c 0.0325,0.098 0.16243,0.162501 0.32485,0.162501 h 0.97457 c 0.29238,0 0.4548,-0.130001 0.48729,-0.422302 l 5.8474,-21.8953072 c 0.0325,-0.29240209 -0.0975,-0.42230209 -0.35735,-0.42230209 h -0.32485 c -0.29237,0 -0.4548,0.1299 -0.48728,0.42230209 l -4.35307,16.2427792 c -0.065,0.292402 -0.2274,0.422302 -0.51976,0.422302 -0.0975,0 -0.19492,-0.065 -0.25989,-0.162401 L 156.55908,0.78952671 c -0.0975,-0.097 -0.2274,-0.1624 -0.32486,-0.1624 h -2.56636 c -0.29237,0 -0.4548,0.1299 -0.48728,0.42230209 z M 176.86253,2.2514344 c -4.02821,2.2090108 -6.5296,5.8148285 -7.56914,9.7456476 -1.81919,6.886934 2.20902,11.694758 8.67365,11.694758 3.50844,0 7.04937,-1.429307 9.90809,-4.288122 0.065,-0.065 0.065,-0.1299 0.0325,-0.1949 l -0.0975,-0.097 c -0.065,-0.097 -0.12994,-0.097 -0.19491,0 -2.4689,2.07901 -5.06775,2.923715 -7.40671,2.923715 -5.55503,0 -9.03098,-4.840425 -7.30925,-11.499957 1.72174,-6.2047309 6.69203,-9.1933452 10.78521,-9.1933452 3.80081,0 5.91237,1.1694054 6.59456,4.2880206 0,0.065 0.0325,0.097001 0.12994,0.065 l 0.32486,-0.1299007 c 0.065,-0.033 0.12995,-0.098001 0.16243,-0.1950009 -0.64971,-2.9886147 -2.82624,-4.80782409 -6.10728,-5.03522509 -2.59885,-0.162401 -5.32764,0.48730304 -7.92648,1.91670979 z m 11.43491,20.9531026 c -0.0325,0.098 0,0.162501 0.12994,0.162501 h 12.60441 c 0.0974,0 0.16242,-0.065 0.19491,-0.162501 l 0.19491,-0.877104 c 0.0325,-0.097 -0.0325,-0.129901 -0.12994,-0.129901 h -9.4533 c -0.0975,0 -0.12994,-0.065 -0.0975,-0.1624 l 2.56636,-9.713248 c 0.0325,-0.097 0.0975,-0.129901 0.2274,-0.129901 h 7.43919 c 0.0975,0 0.16243,-0.065 0.19492,-0.162401 l 0.19491,-0.877104 c 0.0325,-0.098 -0.0325,-0.130001 -0.12994,-0.130001 h -7.47169 c -0.0974,0 -0.0974,-0.065 -0.065,-0.1624 l 2.37146,-8.9010442 c 0.0325,-0.097 0.0975,-0.162401 0.16242,-0.162401 h 9.48578 c 0.0975,0 0.16243,-0.033 0.19491,-0.13 l 0.2274,-0.87710509 c 0.0325,-0.097 0,-0.1624 -0.12994,-0.1624 h -12.6044 c -0.0975,0 -0.16242,0.065 -0.19491,0.1624 z" />
</svg>
